<?xml version="1.0" standalone="no"?>
<!DOCTYPE svg PUBLIC "-//W3C//DTD SVG 20010904//EN"
 "http://www.w3.org/TR/2001/REC-SVG-20010904/DTD/svg10.dtd">
<svg version="1.0" xmlns="http://www.w3.org/2000/svg"
 width="16.000000pt" height="16.000000pt" viewBox="0 0 16.000000 16.000000"
 preserveAspectRatio="xMidYMid meet">
<metadata>
Created by potrace 1.11, written by Peter Selinger 2001-2013
</metadata>
<g transform="translate(0.000000,16.000000) scale(0.021622,-0.021622)"
fill="#000000" stroke="none">
<path d="M260 734 c0 -3 21 -28 47 -55 l47 -50 48 50 c26 28 48 53 48 56 0 15
-44 2 -66 -20 -31 -31 -33 -31 -63 0 -20 22 -61 35 -61 19z"/>
<path d="M260 642 c0 -4 22 -29 48 -55 l48 -47 53 55 c49 51 51 55 28 55 -15
0 -38 -13 -55 -29 l-29 -30 -29 30 c-26 27 -64 40 -64 21z"/>
<path d="M134 563 c0 -25 4 -33 18 -33 11 0 18 -7 18 -20 0 -11 7 -20 15 -20
8 0 15 -7 15 -15 0 -10 11 -15 35 -15 33 0 35 2 35 35 0 24 -5 35 -15 35 -8 0
-15 6 -15 14 0 7 -9 16 -20 19 -11 3 -20 12 -20 19 0 10 -11 15 -33 15 -30 0
-32 -3 -33 -34z"/>
<path d="M509 583 c-6 -7 -8 -13 -3 -14 5 0 -1 -4 -14 -10 -13 -5 -21 -13 -18
-18 3 -5 -3 -11 -14 -14 -16 -4 -20 -12 -18 -36 2 -28 6 -31 35 -31 23 0 33 5
33 15 0 8 7 15 15 15 8 0 15 9 15 20 0 11 3 19 8 19 22 -4 29 4 29 31 0 17 -3
30 -6 31 -39 5 -53 4 -62 -8z"/>
<path d="M303 487 c0 -58 -5 -64 -53 -62 -46 2 -48 -2 -19 -36 16 -19 18 -25
7 -34 -7 -5 -18 -17 -25 -26 -11 -13 -6 -15 37 -14 54 1 55 0 50 -67 -2 -33
10 -36 35 -8 l18 20 22 -20 c28 -27 34 -25 33 8 -1 68 -1 69 40 67 51 -3 56 2
32 32 l-20 26 20 22 c27 29 26 32 -17 30 -57 -2 -61 1 -56 51 4 48 -4 55 -32
24 -18 -20 -18 -20 -45 5 l-27 26 0 -44z"/>
<path d="M0 450 c0 -13 12 -37 27 -52 l27 -28 -27 -28 c-15 -16 -27 -39 -27
-54 0 -25 3 -24 52 28 l52 55 -52 52 c-48 47 -52 50 -52 27z"/>
<path d="M85 450 c1 -11 14 -34 30 -50 l29 -30 -27 -28 c-26 -28 -44 -72 -28
-72 4 0 29 23 56 51 l48 50 -49 50 c-54 54 -61 58 -59 29z"/>
<path d="M561 419 l-45 -50 49 -49 c27 -28 52 -50 56 -50 14 0 -4 46 -29 73
l-26 27 27 28 c25 26 38 73 20 71 -5 -1 -28 -23 -52 -50z"/>
<path d="M650 419 l-46 -51 51 -51 c45 -45 50 -48 53 -29 2 13 -8 34 -26 53
l-29 31 28 29 c27 27 40 69 22 69 -5 -1 -28 -24 -53 -51z"/>
<path d="M193 254 c-13 -14 -23 -29 -23 -34 0 -4 -8 -10 -19 -13 -13 -3 -18
-13 -17 -33 2 -26 6 -29 37 -29 24 0 34 5 34 15 0 8 7 15 15 15 8 0 14 8 14
18 -1 10 5 17 17 17 15 0 19 7 19 35 0 32 -3 35 -27 35 -17 0 -37 -10 -50 -26z"/>
<path d="M447 273 c-13 -21 -3 -62 15 -66 11 -3 17 -10 14 -16 -4 -5 3 -12 14
-16 11 -3 20 -13 20 -21 0 -9 11 -14 33 -14 30 0 33 2 32 32 0 22 -6 34 -17
36 -9 2 -18 12 -21 24 -3 11 -10 17 -16 13 -7 -3 -11 2 -11 14 0 17 -6 21 -29
21 -17 0 -32 -3 -34 -7z"/>
<path d="M307 151 c-26 -28 -47 -53 -47 -56 0 -16 40 -1 67 25 l30 30 27 -30
c29 -34 74 -43 57 -12 -5 9 -27 34 -49 55 l-39 38 -46 -50z"/>
<path d="M302 56 c-23 -25 -42 -47 -42 -50 0 -17 45 -3 62 19 24 31 33 31 62
0 20 -21 66 -35 66 -20 0 9 -87 95 -97 95 -5 0 -28 -20 -51 -44z"/>
</g>
</svg>
